<svg id="Layer_2" data-name="Layer 2" xmlns="http://www.w3.org/2000/svg" viewBox="0 0 162.95 104.03"><defs><style>.cls-1{fill:none;stroke:#000;stroke-miterlimit:10;}.cls-2{fill:#0d9488;}</style></defs><path class="cls-1" d="M150.67,109" transform="translate(-16.34 -11.75)"/><path class="cls-1" d="M174.17,119.57" transform="translate(-16.34 -11.75)"/><path class="cls-1" d="M184.21,147.43" transform="translate(-16.34 -11.75)"/><path class="cls-1" d="M163.75,121.09" transform="translate(-16.34 -11.75)"/><path class="cls-2" d="M140.25,69.74C81.07,53.17,24,107.41,16.34,114.84c.41-3.37,6.83-52.81,25.77-55.33a12.3,12.3,0,0,1,4.92.38c8.81-20,20.3-32.71,29.18-31.07a9.66,9.66,0,0,1,4.55,2.27c6.44-6.44,11.36-11.78,16.67-15.16,6.23-4,11.77-5.4,18.19-3,9.21,3.4,10.38,16.74,9.57,28.33A6,6,0,0,1,129.45,40C134.93,40.77,140.25,69.74,140.25,69.74Z" transform="translate(-16.34 -11.75)"/><path class="cls-2" d="M26.38,115.78c6.38-7.59,29.79-33.59,69.44-39.92a113.23,113.23,0,0,1,57.51,6l-4.55-23.5,30.5,51.54a152,152,0,0,0-152.9,5.87Z" transform="translate(-16.34 -11.75)"/></svg>